<svg width="13" height="13" viewBox="0 0 13 13" fill="none" xmlns="http://www.w3.org/2000/svg">
<path d="M8.3125 9.1875L9.1875 8.3125L6.875 6V3.125H5.625V6.5L8.3125 9.1875ZM6.25 12.5C5.38542 12.5 4.57292 12.3359 3.8125 12.0078C3.05208 11.6797 2.39062 11.2344 1.82812 10.6719C1.26562 10.1094 0.820312 9.44792 0.492188 8.6875C0.164062 7.92708 0 7.11458 0 6.25C0 5.38542 0.164062 4.57292 0.492188 3.8125C0.820312 3.05208 1.26562 2.39062 1.82812 1.82812C2.39062 1.26562 3.05208 0.820312 3.8125 0.492188C4.57292 0.164062 5.38542 0 6.25 0C7.11458 0 7.92708 0.164062 8.6875 0.492188C9.44792 0.820312 10.1094 1.26562 10.6719 1.82812C11.2344 2.39062 11.6797 3.05208 12.0078 3.8125C12.3359 4.57292 12.5 5.38542 12.5 6.25C12.5 7.11458 12.3359 7.92708 12.0078 8.6875C11.6797 9.44792 11.2344 10.1094 10.6719 10.6719C10.1094 11.2344 9.44792 11.6797 8.6875 12.0078C7.92708 12.3359 7.11458 12.5 6.25 12.5ZM6.25 11.25C7.63542 11.25 8.8151 10.763 9.78906 9.78906C10.763 8.8151 11.25 7.63542 11.25 6.25C11.25 4.86458 10.763 3.6849 9.78906 2.71094C8.8151 1.73698 7.63542 1.25 6.25 1.25C4.86458 1.25 3.6849 1.73698 2.71094 2.71094C1.73698 3.6849 1.25 4.86458 1.25 6.25C1.25 7.63542 1.73698 8.8151 2.71094 9.78906C3.6849 10.763 4.86458 11.25 6.25 11.25Z" fill="#71837A"/>
</svg>
